# xmcd
#
# Track frame offsets: 
#        150
#        16187
#        28705
#        41610
#        48925
#        62190
#        74887
#        90397
#        104517
#        118165
#        181912
#        193725
#        214780
#
# Disc length: 3097 seconds
#
# Revision: 4
# Processed by: cddbd v1.5.1PL0 Copyright (c) Steve Scherf et al.
# Submitted via: ExactAudioCopy v0.95a5
#
DISCID=bb0c170d
DTITLE=Glen Campbell - Glen Campbell Live: His Greatest Hits
DYEAR=1994
DGENRE=Country
TTITLE0=Gentle On My Mind
TTITLE1=By The Time I Get To Phoenix
TTITLE2=Galveston
TTITLE3=Kentucky Means Paradise
TTITLE4=Wichita Lineman
TTITLE5=Mansion In Branson
TTITLE6=Here In The Real World
TTITLE7=Classical Gas
TTITLE8=Rhinestone Cowboy
TTITLE9=Medley of Hits
TTITLE10=Let It Be Me
TTITLE11=No More Nights
TTITLE12=Southern Nights
EXTD=Glen Campbell Live from the GoodtimeTheatre in Branson, Missouri
EXTT0=
EXTT1=
EXTT2=
EXTT3=
EXTT4=
EXTT5=
EXTT6=
EXTT7=
EXTT8=
EXTT9=
EXTT10=
EXTT11=
EXTT12=
PLAYORDER=
